<?xml version="1.0" standalone="no"?>
<!DOCTYPE svg PUBLIC "-//W3C//DTD SVG 20010904//EN"
 "http://www.w3.org/TR/2001/REC-SVG-20010904/DTD/svg10.dtd">
<svg version="1.0" xmlns="http://www.w3.org/2000/svg"
 width="347.000000pt" height="347.000000pt" viewBox="0 0 347.000000 347.000000"
 preserveAspectRatio="xMidYMid meet">
<metadata>
Created by potrace 1.11, written by Peter Selinger 2001-2013
</metadata>
<g transform="translate(0.000000,347.000000) scale(0.100000,-0.100000)"
fill="#000000" stroke="none">
<path d="M1536 3393 c-1 -2 -23 -6 -47 -9 -52 -7 -200 -39 -249 -54 -19 -6
-42 -13 -50 -15 -28 -6 -175 -67 -187 -77 -7 -6 -13 -8 -13 -5 0 5 -72 -33
-160 -84 -122 -70 -341 -261 -434 -379 -49 -61 -48 -60 -76 -100 -13 -19 -27
-37 -30 -40 -40 -37 -204 -401 -217 -485 -3 -16 -9 -38 -14 -47 -5 -10 -8 -18
-5 -18 2 0 0 -17 -5 -37 -11 -42 -17 -78 -25 -138 -10 -68 -12 -341 -3 -397 5
-29 10 -71 13 -93 2 -22 5 -40 7 -40 1 0 3 -9 5 -20 2 -11 5 -27 7 -35 2 -8 7
-28 11 -45 4 -16 17 -59 29 -95 12 -36 22 -67 22 -70 1 -3 9 -22 18 -44 9 -21
17 -41 17 -45 0 -7 65 -135 97 -191 93 -163 267 -361 408 -465 22 -17 42 -32
45 -36 15 -17 138 -93 221 -137 92 -48 273 -121 314 -127 11 -1 27 -6 36 -9 8
-4 58 -15 110 -26 82 -17 128 -19 369 -16 151 1 289 6 305 10 17 4 68 16 115
27 83 19 205 56 225 68 6 3 15 6 20 7 6 1 39 16 75 32 36 17 69 30 74 30 5 0
12 4 15 9 3 4 25 19 49 32 45 24 140 84 157 99 6 5 24 17 40 28 74 47 262 237
325 329 19 28 38 52 41 55 26 23 121 195 112 204 -4 3 -2 6 4 6 9 0 36 50 38
70 1 3 10 25 22 50 12 25 24 62 28 83 4 20 11 37 16 37 5 0 8 3 7 8 -1 4 6 41
16 82 10 41 21 86 24 100 3 14 7 142 8 285 3 192 0 275 -10 318 -7 32 -14 61
-15 65 -20 92 -52 192 -94 292 -41 97 -149 289 -170 302 -7 4 -8 8 -4 8 5 0 2
7 -5 15 -7 8 -17 20 -23 27 -119 154 -269 301 -387 378 -21 14 -38 29 -38 33
0 5 -4 6 -9 3 -5 -3 -14 1 -21 9 -7 8 -19 15 -26 15 -8 0 -14 4 -14 8 0 16
-251 133 -367 171 -100 33 -270 73 -348 81 -35 4 -395 7 -399 3z m404 -267
c14 -3 36 -7 50 -10 50 -9 86 -17 125 -28 22 -6 45 -13 50 -14 128 -33 338
-144 470 -248 72 -56 165 -152 170 -174 4 -22 -75 -100 -185 -181 -30 -22 -60
-44 -66 -49 -6 -6 -25 -17 -42 -26 l-31 -16 -53 48 c-29 26 -71 61 -93 77 -22
16 -42 31 -45 34 -11 13 -170 91 -231 114 -221 83 -502 80 -712 -8 -20 -8 -38
-15 -39 -14 -6 3 -164 -94 -202 -124 -62 -48 -127 -115 -185 -189 -33 -43 -60
-68 -72 -68 -36 0 -210 96 -280 154 -34 29 -31 60 15 128 129 193 370 390 593
486 71 30 104 44 113 47 3 0 32 9 65 19 133 40 243 54 405 50 85 -1 166 -5
180 -8z m-75 -701 c104 -21 240 -82 291 -130 6 -5 22 -19 35 -31 38 -33 99
-102 99 -112 0 -5 6 -15 14 -21 12 -10 58 -95 61 -111 0 -3 3 -9 7 -15 13 -21
36 -111 42 -170 3 -22 5 -42 6 -45 8 -27 -10 -215 -20 -215 -1 0 -4 -11 -6
-25 -8 -41 -52 -130 -68 -136 -8 -3 -41 10 -73 29 -72 42 -199 94 -273 112
-83 20 -118 24 -207 23 -185 -1 -337 -52 -483 -162 -30 -22 -58 -46 -62 -52
-4 -6 -19 -19 -33 -28 -25 -16 -25 -16 -58 36 -33 52 -73 150 -81 198 -3 14
-5 25 -6 25 -4 0 -11 81 -12 140 -1 65 9 145 24 185 6 14 12 36 14 49 3 13 16
46 31 75 95 189 259 322 463 377 65 17 221 20 295 4z m1205 -197 c6 -18 18
-49 25 -68 8 -19 17 -48 21 -65 4 -16 8 -32 9 -35 2 -10 17 -86 20 -105 2 -11
7 -38 11 -60 8 -48 13 -296 6 -309 -3 -5 -6 -25 -8 -45 -5 -48 -13 -102 -20
-124 -3 -11 -7 -29 -9 -40 -4 -34 -66 -221 -76 -232 -5 -5 -9 -16 -9 -24 0 -8
-7 -22 -15 -31 -9 -10 -17 -27 -20 -39 -2 -12 -11 -28 -19 -37 -9 -8 -16 -19
-16 -24 0 -39 -235 -325 -283 -343 -14 -5 -105 76 -172 155 -37 42 -95 149
-95 173 0 22 27 61 77 112 44 45 114 153 149 229 70 151 92 259 88 436 -1 62
-7 126 -13 141 -6 15 -10 31 -9 35 1 4 -6 34 -16 67 -34 112 -31 134 17 154
18 7 41 16 52 21 11 4 67 27 125 49 58 23 112 46 119 51 22 13 46 -4 61 -42z
m-2575 -184 c39 -9 79 -18 90 -20 11 -1 52 -11 90 -21 l70 -18 -1 -45 c0 -25
-4 -67 -8 -94 -6 -42 -8 -120 -4 -201 1 -18 14 -87 34 -180 9 -45 85 -215 95
-215 5 0 9 -5 9 -11 0 -21 71 -116 139 -185 81 -83 83 -93 29 -190 -40 -73
-74 -118 -152 -201 -49 -52 -62 -61 -77 -52 -23 12 -145 133 -179 178 -14 17
-33 42 -43 54 -26 31 -108 171 -141 241 -34 72 -94 250 -101 302 -3 22 -8 45
-11 53 -17 51 -24 334 -10 432 21 145 47 206 85 195 9 -2 48 -12 86 -22z"/>
</g>
</svg>
